<svg
    xmlns="http://www.w3.org/2000/svg"
    viewBox="0 0 1048 234"
    class="stroke-current fill-current dark:text-white"
    id="logo"
  >
    <path
      d="M444.92 0c-.63 6.87-3.35 12.53-9.64 15.9-1.68.9-3.72 1.11-6.24 1.82-.3-9.41 5.06-14 11.88-17.72zM1048.92 178c-.88 3.35-1.51 6.79-2.68 10-9 25.29-27.57 39.18-53.48 43.84a87.36 87.36 0 01-14.92 1c-19.48.1-39 .06-58.46 0-5.85 0-7.36-1.38-7.36-6.82V23.66c0-4.65 2-6.7 6.57-6.69 21.82.06 43.65-.39 65.45.21 18.84.51 33.88 9.27 44.61 24.69 14.56 21 9.09 50.27-11.83 65.14-2.81 2-5.81 3.72-9.21 5.88 1.5.82 2.58 1.45 3.69 2 19.85 9.84 32.91 25 36.9 47.22a9 9 0 00.77 1.82zm-125.11 44a24.93 24.93 0 002.86.37c18.15.09 36.29.28 54.44.17A67.93 67.93 0 00995 221c30.54-6.64 49-37.05 40-65.46-6.52-20.43-28.63-36.19-51.8-36.5-18.64-.26-37.3-.08-55.95-.06a24.89 24.89 0 00-3.39.45zM924 28v80c1 .11 1.84.27 2.63.27 18.82 0 37.64.11 56.45-.14a44 44 0 0012.71-2.19c28-9 38.37-40.66 20.43-61.95-8.45-10-19.28-15.9-32.51-16.12-19.15-.32-38.3-.14-57.45-.15A17.53 17.53 0 00924 28zM11.65 28v196.48c0 4 .13 8.06-5.36 8.38-3.68.22-6.14-1.32-6.28-5.38V25.5c0-7.54.85-8.44 8.2-8.44 20.84 0 41.67-.26 62.5.09 22.12.38 40.35 9.39 54 26.81A57.88 57.88 0 01122 118.4c-13.81 15.3-31.14 23-51.66 23.46-8 .19-15.91 0-24.57 1.11 1.31 1.12 2.65 2.21 3.92 3.37q40.56 36.76 81.1 73.55l1.86 1.67c2.91 2.59 6.32 5.17 3.09 9.55-2.21 3-6.62 2.25-10.89-1.63q-47.73-43.36-95.44-86.76a21.19 21.19 0 01-3.44-3.59C24 136.22 25 133 28.4 132a23.6 23.6 0 016.4-.72c13-.12 26.06.65 39-.37 22.59-1.79 39.53-13.08 48.2-34.25 11.13-27.2-5.89-58.06-36.09-66.6a62.1 62.1 0 00-15.75-2.27c-18.32-.28-36.66-.13-55-.13-.98.02-1.94.17-3.51.34zM272.85 164.73c-22.17 0-44.33.12-66.5-.11-4 0-5.85 1.34-7.64 4.67-10.33 19.21-20.9 38.28-31.4 57.4a25.55 25.55 0 01-2.29 3.85c-2.38 3-5.47 3.15-8.5 1.36s-2.19-4.41-.84-7c3.5-6.63 6.83-13.34 10.43-19.91q49.48-90.18 99.08-180.32c1.78-3.24 3.07-7.5 7.81-7.53s6.1 4.1 7.9 7.4q53.28 97.22 106.48 194.49c1.12 2 2.11 4.15 3.21 6.2 1.31 2.45 1.89 5.43-1 6.4-2.4.8-5.58.08-8.15-.76-1.2-.39-1.84-2.63-2.64-4.09-10.65-19.4-21.35-38.79-31.88-58.27-1.55-2.87-3.3-3.91-6.6-3.89-22.48.19-44.97.11-67.47.11zm.25-130.63l-65.66 119.61h131.18zM649 232.88c-6.8.08-8.74-3.2-6.19-8 9.24-17.52 18.44-35.06 28-52.42q40.61-74 81.47-147.84a39.45 39.45 0 012.59-4.27c3.17-4.34 7.44-4.31 10.64.05a25.75 25.75 0 011.78 3q53.84 98.34 107.66 196.69c.88 1.6 1.66 3.26 2.53 4.87 1.38 2.55 2.15 5.17-.87 7s-6.12 1.61-8.52-1.31a25.6 25.6 0 01-2.26-3.87c-10.5-19.12-21.08-38.19-31.41-57.39-1.8-3.35-3.69-4.71-7.64-4.69q-66.74.24-133.49 0c-3.65 0-5.61 1.07-7.35 4.31q-15.94 29.42-32.23 58.62c-1.31 2.37-3.71 4.11-4.71 5.25zm176.71-79.06L760.1 34.11l-65.73 119.71zM498.65 222.34h118c3.73.1 7.29.56 7.17 5.51-.12 4.59-3.41 5.09-7 5.09H494.41c-6.19 0-7.39-1.32-7.39-7.8V24.78c0-5.75 1.63-7.8 6-7.67 5.09.15 5.64 3.6 5.64 7.63V215.1z"
    />
    <path
      d="M457.67 24.68c-11.23 11-10.61 21 2.43 30-2.54 6.95-5.91 13.67-12.4 17.72-2.46 1.54-6.84 1.32-9.86.37-5.2-1.65-10-2-15 .19-5.28 2.32-9.64.93-13.37-3.35-8.66-9.9-12.75-21.3-11.44-34.45 1.21-12.36 13.04-20.31 24.52-16.16a19.13 19.13 0 0013.89-.14c8.69-3.16 16.21-.86 21.23 5.82zM425 159c0-22.14.05-44.29 0-66.43 0-4.1 1.06-6.94 5.65-7 3.47-.09 5.76 1.4 6 5.16.05.83 0 1.66 0 2.49v131.84c0 3 .19 6.16-3.44 7.51-4.69 1.74-8.18-1-8.19-6.62Q425 192.49 425 159z"
    />
  </svg>